# xmcd
#
# Track frame offsets: 
#        150
#        14835
#        27905
#        42477
#        56255
#        72537
#        83992
#        99210
#        112350
#        127995
#        140660
#        157675
#        171835
#        187520
#        197347
#        210950
#        224880
#        242170
#
# Disc length: 3430 seconds
#
# Revision: 0
# Processed by: cddbd v1.5.2PL0 Copyright (c) Steve Scherf et al.
# Submitted via: ExactAudioCopy v1.0b2
#
DISCID=fd0d6412
DTITLE=Various Artist - CBS Records Limited Edition Radio Sampler - V
DTITLE=olume III
DYEAR=1989
DGENRE=Country
TTITLE0=Merle Haggard - 5-01 Blues
TTITLE1=Merle Haggard - Sea Of Heartbreak
TTITLE2=Sweethearts Of The Rodeo - If I Never See Midnight Again
TTITLE3=Sweethearts Of The Rodeo - We Won't Let That River Come Betwee
TTITLE3=n Us
TTITLE4=Ricky Skaggs - Lovin' Only Me
TTITLE5=Ricky Van Shelton - Hole In My Pocket
TTITLE6=Ricky Van Shelton - Living Proof
TTITLE7=George Jones - Writing On The Wall
TTITLE8=George Jones - Radio Lover
TTITLE9=Vern Gosdin - I'm Still Crazy
TTITLE10=Vern Gosdin - Take Me Home To Alabama
TTITLE11=Janie Fricke - Love Is One Of Those Words
TTITLE12=Janie Fricke - Give 'Em My Number
TTITLE13=Mary Chapin Carpenter - How Do
TTITLE14=Tim Mensy - Hometown Advantage
TTITLE15=Shooters - If I Ever Go Crazy
TTITLE16=Shooters - Leave And Learn
TTITLE17=Russell Smith - I Wonder What She's Doing Tonight
EXTD=
EXTT0=
EXTT1=
EXTT2=
EXTT3=
EXTT4=
EXTT5=
EXTT6=
EXTT7=
EXTT8=
EXTT9=
EXTT10=
EXTT11=
EXTT12=
EXTT13=
EXTT14=
EXTT15=
EXTT16=
EXTT17=
PLAYORDER=
